<?xml version="1.0" encoding="UTF-8" standalone="no"?>
<!-- Created with Inkscape (http://www.inkscape.org/) -->

<svg
   width="13.23455mm"
   height="17.50325mm"
   viewBox="0 0 13.23455 17.50325"
   version="1.1"
   id="svg1"
   inkscape:version="1.3.2 (091e20e, 2023-11-25)"
   sodipodi:docname="timesig_4.svg"
   xmlns:inkscape="http://www.inkscape.org/namespaces/inkscape"
   xmlns:sodipodi="http://sodipodi.sourceforge.net/DTD/sodipodi-0.dtd"
   xmlns="http://www.w3.org/2000/svg"
   xmlns:svg="http://www.w3.org/2000/svg">
  <sodipodi:namedview
     id="namedview1"
     pagecolor="#ffffff"
     bordercolor="#000000"
     borderopacity="0.25"
     inkscape:showpageshadow="2"
     inkscape:pageopacity="0.0"
     inkscape:pagecheckerboard="0"
     inkscape:deskcolor="#d1d1d1"
     inkscape:document-units="mm"
     inkscape:zoom="0.46645053"
     inkscape:cx="-361.23874"
     inkscape:cy="196.16228"
     inkscape:window-width="1296"
     inkscape:window-height="890"
     inkscape:window-x="1068"
     inkscape:window-y="439"
     inkscape:window-maximized="0"
     inkscape:current-layer="layer1" />
  <defs
     id="defs1" />
  <g
     inkscape:label="Layer 1"
     inkscape:groupmode="layer"
     id="layer1"
     style="display:inline"
     transform="translate(-304.87812,-107.26133)">
    <path
       id="path11528-0"
       d="m 304.87812,120.27317 v -1.42318 l 0.59649,-0.70234 0.68969,-0.79476 0.69459,-0.98389 0.55432,-1.12315 0.63377,-1.58952 0.55921,-1.58952 0.50329,-2.10704 0.2796,-1.55256 0.13049,-1.09048 6.22588,-0.0554 -0.0373,0.77627 -0.67105,1.03504 -0.91338,1.29379 -0.93202,1.21987 -1.1557,1.4971 -1.17435,1.44166 -1.67763,1.73738 -2.36732,2.27339 v 0.33268 l 5.07018,-0.0554 0.0186,-3.30842 4.02632,-4.06622 0.29825,-0.0185 v 7.33767 l 1.80811,-0.037 v 1.58952 l -1.86403,0.0555 -0.0187,0.81324 0.11185,0.73932 0.29824,0.85021 0.52193,0.46206 0.52193,0.14787 0.50329,0.12938 -0.0186,1.23834 -8.2204,0.0185 -0.0373,-1.23835 0.63377,-0.0554 0.42873,-0.1109 0.55921,-0.36965 0.20504,-0.40662 0.16776,-0.68386 0.0559,-0.83173 -0.0187,-0.73931 z"
       style="vector-effect:none;fill:#000000;fill-opacity:1;fill-rule:nonzero;stroke:none;stroke-width:1;stroke-linecap:butt;stroke-linejoin:miter;stroke-miterlimit:4;stroke-dasharray:none;stroke-dashoffset:0;stroke-opacity:1;paint-order:stroke fill markers" />
  </g>
</svg>
