<?xml version="1.0" encoding="UTF-8" standalone="no"?>
<!-- Created with Inkscape (http://www.inkscape.org/) -->

<svg
   width="12.92471mm"
   height="17.62534mm"
   viewBox="0 0 12.92471 17.625339"
   version="1.1"
   id="svg1"
   inkscape:version="1.3.2 (091e20e, 2023-11-25)"
   sodipodi:docname="timesig_7.svg"
   xmlns:inkscape="http://www.inkscape.org/namespaces/inkscape"
   xmlns:sodipodi="http://sodipodi.sourceforge.net/DTD/sodipodi-0.dtd"
   xmlns="http://www.w3.org/2000/svg"
   xmlns:svg="http://www.w3.org/2000/svg">
  <sodipodi:namedview
     id="namedview1"
     pagecolor="#ffffff"
     bordercolor="#000000"
     borderopacity="0.25"
     inkscape:showpageshadow="2"
     inkscape:pageopacity="0.0"
     inkscape:pagecheckerboard="0"
     inkscape:deskcolor="#d1d1d1"
     inkscape:document-units="mm"
     inkscape:zoom="0.46645053"
     inkscape:cx="172.57993"
     inkscape:cy="9.6473253"
     inkscape:window-width="1296"
     inkscape:window-height="890"
     inkscape:window-x="1031"
     inkscape:window-y="414"
     inkscape:window-maximized="0"
     inkscape:current-layer="layer1" />
  <defs
     id="defs1" />
  <g
     inkscape:label="Layer 1"
     inkscape:groupmode="layer"
     id="layer1"
     style="display:inline"
     transform="translate(-163.32604,-156.47378)">
    <path
       id="path19249-3"
       d="m 164.3567,156.47378 -1.03066,4.96361 0.16713,0.23781 0.19504,0.0297 0.30633,-0.2377 0.38999,-0.65394 c 0,0 9.61926,-0.33678 9.13648,0.14864 -0.48277,0.48541 -0.93784,0.87193 -1.44847,1.45641 -0.51063,0.58449 -1.13283,1.20874 -1.53204,1.7536 -0.39921,0.54486 -0.82644,1.02053 -1.19779,1.63474 -0.37135,0.61421 -0.71502,1.07994 -1.11423,1.84276 -0.3992,0.76283 -0.9099,1.55548 -1.19769,2.28858 -0.28779,0.7331 -0.73359,1.49614 -0.86353,2.19952 -0.12079,0.65383 -0.33028,1.78711 -0.36254,1.96161 h 5.57559 c 0.0195,-0.91658 -0.0954,-1.62922 0.10729,-2.82357 0.21361,-1.25829 0.40842,-3.11093 0.64059,-3.77478 0.23217,-0.66385 0.41781,-1.49598 0.69641,-1.9914 0.2786,-0.49542 0.48275,-0.97086 0.83563,-1.4861 0.35287,-0.51524 0.81702,-1.03034 1.05848,-1.54558 0.24146,-0.51523 0.72424,-1.54557 0.72424,-1.54557 l 0.8078,-4.36915 z"
       style="vector-effect:none;fill:#000000;fill-opacity:1;fill-rule:nonzero;stroke:none;stroke-width:1;stroke-linecap:butt;stroke-linejoin:miter;stroke-miterlimit:4;stroke-dasharray:none;stroke-dashoffset:0;stroke-opacity:1;paint-order:stroke fill markers" />
  </g>
</svg>
