<?xml version="1.0" encoding="UTF-8" standalone="no"?>
<!-- Created with Inkscape (http://www.inkscape.org/) -->

<svg
   width="13.260692mm"
   height="17.727089mm"
   viewBox="0 0 13.260691 17.727089"
   version="1.1"
   id="svg1"
   inkscape:version="1.3.2 (091e20e, 2023-11-25)"
   sodipodi:docname="timesig_3.svg"
   xmlns:inkscape="http://www.inkscape.org/namespaces/inkscape"
   xmlns:sodipodi="http://sodipodi.sourceforge.net/DTD/sodipodi-0.dtd"
   xmlns="http://www.w3.org/2000/svg"
   xmlns:svg="http://www.w3.org/2000/svg">
  <sodipodi:namedview
     id="namedview1"
     pagecolor="#ffffff"
     bordercolor="#000000"
     borderopacity="0.25"
     inkscape:showpageshadow="2"
     inkscape:pageopacity="0.0"
     inkscape:pagecheckerboard="0"
     inkscape:deskcolor="#d1d1d1"
     inkscape:document-units="mm"
     inkscape:zoom="0.46645053"
     inkscape:cx="61.099727"
     inkscape:cy="80.394378"
     inkscape:window-width="1296"
     inkscape:window-height="890"
     inkscape:window-x="1316"
     inkscape:window-y="335"
     inkscape:window-maximized="0"
     inkscape:current-layer="layer1" />
  <defs
     id="defs1" />
  <g
     inkscape:label="Layer 1"
     inkscape:groupmode="layer"
     id="layer1"
     style="display:inline"
     transform="translate(-192.69479,-137.68837)">
    <path
       id="path11545-7"
       d="m 196.95778,140.18207 c 0.55942,0.36295 0.93924,0.94201 0.99903,1.61128 0.13014,0.58425 -0.10688,1.20766 -0.37292,1.71117 -0.50563,0.44474 -1.17518,0.69178 -1.81817,0.84703 -0.74241,-0.0677 -1.58682,-0.15508 -2.0613,-0.80886 -0.47768,-0.48981 -0.60619,-1.22164 -0.69692,-1.8736 0.0814,-0.93689 0.26751,-1.97611 1.15331,-2.49316 0.90983,-0.79603 2.10314,-1.19371 3.2811,-1.36783 1.48771,-0.23747 3.00547,-0.0907 4.47612,0.16998 0.92974,0.40537 1.90374,0.78959 2.59606,1.5625 0.45184,0.3751 0.70492,0.94487 0.94808,1.4656 0.28865,0.60005 0.1827,1.27018 0.13733,1.90784 -0.1727,0.48777 -0.28695,0.94274 -0.68449,1.36264 -0.40001,0.54176 -0.81953,1.0695 -1.52197,1.34899 -0.27952,0.13133 -0.93638,0.23984 -1.01499,0.37805 0.70541,0.29077 1.44229,0.52656 2.00569,1.06543 0.48175,0.44889 1.02234,0.85927 1.24104,1.50703 0.32434,0.68087 0.37901,1.4595 0.29643,2.20352 -0.0178,0.55769 -0.24807,1.1002 -0.43142,1.61511 -0.45398,0.56957 -0.88738,1.16091 -1.53211,1.52879 -0.66339,0.54082 -1.44649,0.92597 -2.25191,1.19501 -0.77628,0.18107 -1.55308,0.35697 -2.35534,0.27706 -1.40113,0.0383 -2.83563,-0.1359 -4.0742,-0.83777 -1.2641,-0.485 -2.48769,-1.55257 -2.51527,-3.00203 -0.14599,-0.534 -0.0348,-1.12492 0.18123,-1.61935 0.40621,-0.80797 1.27329,-1.27936 2.16005,-1.31709 0.68075,-0.15256 1.37836,0.13417 1.94454,0.49169 0.33794,0.31877 0.63816,0.65844 0.67961,1.14156 0.14812,0.61152 0.14636,1.3218 -0.13563,1.88479 -0.23733,0.43996 -0.7604,0.87484 -0.52362,1.40881 0.37769,0.22495 0.75137,0.46632 1.21,0.35974 0.51214,-0.01 1.05957,-0.0798 1.52398,-0.28251 0.69672,-0.40333 1.27885,-1.01741 1.49668,-1.8064 0.43272,-0.97726 0.39697,-2.13569 -0.16269,-3.05992 -0.43366,-0.60466 -0.98974,-1.19766 -1.67684,-1.50603 -0.89414,-0.32635 -1.84252,-0.45223 -2.78484,-0.55102 l 0.0438,-1.33423 c 0.92184,-0.063 1.88983,-0.0853 2.7533,-0.4252 0.52822,-0.22828 1.0491,-0.58643 1.32849,-1.09221 0.22829,-0.45718 0.41506,-0.92332 0.34836,-1.44421 0.0505,-0.66112 -0.13642,-1.32664 -0.34115,-1.94352 -0.21275,-0.52449 -0.66399,-0.8731 -1.13441,-1.15039 -0.80594,-0.32046 -1.71337,-0.33437 -2.53225,-0.0597 -0.40568,0.0672 -0.59448,0.58793 -0.24468,0.8475 l 0.0399,0.0532 z"
       style="vector-effect:none;fill:#000000;fill-opacity:1;fill-rule:nonzero;stroke:none;stroke-width:1;stroke-linecap:butt;stroke-linejoin:miter;stroke-miterlimit:4;stroke-dasharray:none;stroke-dashoffset:0;stroke-opacity:1;paint-order:stroke fill markers" />
  </g>
</svg>
