<?xml version="1.0" encoding="UTF-8" standalone="no"?>
<!-- Created with Inkscape (http://www.inkscape.org/) -->

<svg
   width="13.039692mm"
   height="17.4105mm"
   viewBox="0 0 13.039692 17.410499"
   version="1.1"
   id="svg1"
   inkscape:version="1.3.2 (091e20e, 2023-11-25)"
   sodipodi:docname="timesig_5.svg"
   xmlns:inkscape="http://www.inkscape.org/namespaces/inkscape"
   xmlns:sodipodi="http://sodipodi.sourceforge.net/DTD/sodipodi-0.dtd"
   xmlns="http://www.w3.org/2000/svg"
   xmlns:svg="http://www.w3.org/2000/svg">
  <sodipodi:namedview
     id="namedview1"
     pagecolor="#ffffff"
     bordercolor="#000000"
     borderopacity="0.25"
     inkscape:showpageshadow="2"
     inkscape:pageopacity="0.0"
     inkscape:pagecheckerboard="0"
     inkscape:deskcolor="#d1d1d1"
     inkscape:document-units="mm"
     inkscape:zoom="0.46645053"
     inkscape:cx="-410.54729"
     inkscape:cy="346.23179"
     inkscape:window-width="1296"
     inkscape:window-height="890"
     inkscape:window-x="981"
     inkscape:window-y="438"
     inkscape:window-maximized="0"
     inkscape:current-layer="layer1" />
  <defs
     id="defs1" />
  <g
     inkscape:label="Layer 1"
     inkscape:groupmode="layer"
     id="layer1"
     style="display:inline"
     transform="translate(-317.57812,-67.0446)">
    <path
       d="m 329.44258,67.044631 c -1.10346,0.615439 -2.47006,0.241546 -3.69717,0.337132 -2.49757,-0.01786 -4.99514,-0.03567 -7.49272,-0.0535 l -0.28692,9.015376 c 0.7816,0.310959 1.79579,0.09706 1.98916,-0.691473 0.35289,-0.817399 1.37733,-1.159738 2.34096,-1.021609 1.20007,-0.05909 2.01918,0.654957 2.55951,1.479375 0.90348,1.022064 1.05514,2.345645 1.06601,3.58222 0.0694,0.842738 -0.3001,1.664933 -0.70657,2.411153 -0.43929,0.598856 -1.13894,1.044708 -1.99527,1.064821 -0.73412,0.14877 -1.98239,0.164558 -2.1678,-0.625361 -0.12873,-0.778904 1.0436,-0.880483 1.28997,-1.525503 0.61338,-1.040455 0.16766,-2.356347 -0.77379,-3.142257 -0.92425,-0.756304 -2.62716,-0.665036 -3.29726,0.308242 -0.83594,1.11679 -0.84937,2.547326 -0.38938,3.775178 0.18202,1.080966 1.48699,1.581687 2.49869,2.040533 1.88514,0.384868 3.92097,0.741788 5.79497,0.114739 1.47223,-0.578945 2.74263,-1.549326 3.51441,-2.765102 0.51562,-0.665147 0.69646,-1.164725 0.88248,-2.118924 0.0782,-1.032317 0.082,-1.990894 -0.19434,-2.794325 -0.20689,-1.138293 -1.20843,-2.020779 -2.195,-2.741716 -1.02253,-0.682117 -2.4098,-0.74367 -3.66022,-0.799036 -1.66289,-0.0028 -3.45976,0.165084 -4.76177,1.133914 -0.46297,-0.140663 -0.47858,-1.264399 -0.3716,-1.80521 0.0366,-0.698817 0.67097,-1.386961 1.5635,-1.241052 2.58682,0.0085 5.17912,0.04688 7.76701,-0.01855 0.98259,-0.11975 1.02054,-0.389168 1.01029,-1.754936 -0.0842,-0.687255 0.32146,-1.690524 -0.22429,-2.14194 l -0.0448,-0.01582 -0.018,-0.0064 z"
       id="path12798-8"
       style="vector-effect:none;fill:#000000;fill-opacity:1;fill-rule:nonzero;stroke:none;stroke-width:1;stroke-linecap:butt;stroke-linejoin:miter;stroke-miterlimit:4;stroke-dasharray:none;stroke-dashoffset:0;stroke-opacity:1;paint-order:stroke fill markers" />
  </g>
</svg>
