<?xml version="1.0" encoding="UTF-8" standalone="no"?>
<!-- Created with Inkscape (http://www.inkscape.org/) -->

<svg
   width="12.362105mm"
   height="17.57843mm"
   viewBox="0 0 12.362105 17.57843"
   version="1.1"
   id="svg1"
   inkscape:version="1.3.2 (091e20e, 2023-11-25)"
   sodipodi:docname="timesig_0.svg"
   xmlns:inkscape="http://www.inkscape.org/namespaces/inkscape"
   xmlns:sodipodi="http://sodipodi.sourceforge.net/DTD/sodipodi-0.dtd"
   xmlns="http://www.w3.org/2000/svg"
   xmlns:svg="http://www.w3.org/2000/svg">
  <sodipodi:namedview
     id="namedview1"
     pagecolor="#ffffff"
     bordercolor="#000000"
     borderopacity="0.25"
     inkscape:showpageshadow="2"
     inkscape:pageopacity="0.0"
     inkscape:pagecheckerboard="0"
     inkscape:deskcolor="#d1d1d1"
     inkscape:document-units="mm"
     inkscape:zoom="0.46645053"
     inkscape:cx="328.00906"
     inkscape:cy="46.092777"
     inkscape:window-width="1296"
     inkscape:window-height="890"
     inkscape:window-x="646"
     inkscape:window-y="378"
     inkscape:window-maximized="0"
     inkscape:current-layer="layer1" />
  <defs
     id="defs1" />
  <g
     inkscape:label="Layer 1"
     inkscape:groupmode="layer"
     id="layer1"
     style="display:inline"
     transform="translate(-122.05104,-146.6842)">
    <path
       id="path1"
       d="m 127.99736,146.69005 c -0.8843,0.0459 -1.75561,0.3577 -2.52078,0.88005 -0.76517,0.52234 -1.42383,1.25307 -1.92701,2.10788 -0.4132,0.70193 -0.72168,1.48443 -0.95136,2.29392 -0.33373,1.17617 -0.50341,2.4125 -0.54002,3.65145 -0.0435,1.47057 0.10532,2.97221 0.61701,4.3155 0.66242,1.73897 1.93394,3.13899 3.44527,3.83284 1.33187,0.61146 2.85993,0.67445 4.19096,0.0605 1.60651,-0.74106 2.81979,-2.40891 3.47059,-4.28552 0.72749,-2.09778 0.80807,-4.47376 0.33435,-6.66936 -0.42016,-1.94734 -1.30628,-3.81364 -2.69958,-4.98006 -0.98709,-0.82636 -2.20821,-1.27006 -3.41943,-1.20716 z m 0.27957,1.52549 c 0.37363,0.0148 0.7232,0.25054 0.97668,0.57309 0.40517,0.51556 0.57933,1.21994 0.71986,1.90169 0.59579,2.89048 0.8133,5.9281 0.3085,8.84235 -0.16509,0.95312 -0.42542,1.92775 -1.00252,2.62568 -0.12729,0.15395 -0.26929,0.29296 -0.42943,0.39636 -0.16014,0.1034 -0.33925,0.17063 -0.52193,0.17725 -0.26396,0.01 -0.52191,-0.10722 -0.74569,-0.27182 -0.55419,-0.40763 -0.91971,-1.09538 -1.15704,-1.81074 -0.4112,-1.23946 -0.48759,-2.5935 -0.51418,-3.92327 -0.0323,-1.61316 0.002,-3.23277 0.20567,-4.82865 0.1264,-0.99252 0.33102,-2.00825 0.84853,-2.80706 0.15819,-0.24418 0.34542,-0.46543 0.56792,-0.62632 0.22251,-0.1609 0.48244,-0.2589 0.74363,-0.24856 z"
       style="vector-effect:none;fill:#000000;fill-opacity:1;fill-rule:nonzero;stroke:none;stroke-width:1;stroke-linecap:butt;stroke-linejoin:miter;stroke-miterlimit:4;stroke-dasharray:none;stroke-dashoffset:0;stroke-opacity:1;paint-order:stroke fill markers" />
  </g>
</svg>
